<svg width="60" height="60" viewBox="0 0 60 60" fill="none" xmlns="http://www.w3.org/2000/svg">
<g clip-path="url(#clip0_1_331)">
<path fill-rule="evenodd" clip-rule="evenodd" d="M58.75 46.25C58.75 49.5652 57.433 52.7446 55.0888 55.0888C52.7446 57.433 49.5652 58.75 46.25 58.75C42.9348 58.75 39.7554 57.433 37.4112 55.0888C35.067 52.7446 33.75 49.5652 33.75 46.25C33.75 42.9348 35.067 39.7554 37.4112 37.4112C39.7554 35.067 42.9348 33.75 46.25 33.75C49.5652 33.75 52.7446 35.067 55.0888 37.4112C57.433 39.7554 58.75 42.9348 58.75 46.25V46.25Z" stroke="#0AF534" stroke-width="2.625" stroke-linejoin="round"/>
<path d="M52.5 46.25H40M46.25 40V52.5V40Z" stroke="#0AF534" stroke-width="2.625" stroke-linecap="round" stroke-linejoin="round"/>
<path d="M34.9125 33.2062C32.975 32.5625 30.875 31.875 28.75 31.0625V24.8125C28.75 24.8125 32.5 23.2687 32.5 17.3125C34.4563 17.3125 34.4563 12.1375 32.5 12.1375C32.5 11.5625 34.5625 8.12495 33.75 4.81245C32.5625 0.0624515 18.6875 0.0624515 17.5 4.8187C11.5813 3.6312 15 11.525 15 12.3187C13.0438 12.3187 13.0438 17.3187 15 17.3187C15 23.275 18.75 24.8187 18.75 24.8187V31.0687C11.8063 33.7125 3.53125 35.4625 2.5 38.5687C1.3125 42.1437 1.25 48.75 1.25 48.75H27.5" stroke="#0AF534" stroke-width="2.625" stroke-linejoin="round"/>
</g>
<defs>
<clipPath id="clip0_1_331">
<rect width="60" height="60" fill="white"/>
</clipPath>
</defs>
</svg>
